<svg width="80" height="80" viewBox="0 0 80 80" fill="none" xmlns="http://www.w3.org/2000/svg">
<path d="M75.7843 23.457C75.7838 22.1155 75.4968 20.9301 74.9166 19.9126C74.3466 18.9121 73.4931 18.0737 72.3482 17.4106C62.8978 11.9615 53.4382 6.52898 43.9908 1.07425C41.4438 -0.396156 38.9743 -0.34255 36.4462 1.14897C32.6847 3.36735 13.8518 14.1571 8.23992 17.4076C5.92878 18.7455 4.80417 20.7931 4.80361 23.4545C4.8 34.4131 4.80361 45.3714 4.8 56.3303C4.80055 57.6425 5.07525 58.8048 5.62992 59.8069C6.20013 60.8377 7.06561 61.6993 8.23688 62.3773C13.8491 65.6277 32.6844 76.4166 36.4452 78.6356C38.9743 80.128 41.4438 80.1816 43.9916 78.7103C53.4393 73.2553 62.8994 67.8231 72.3513 62.3739C73.5226 61.6962 74.388 60.8341 74.9582 59.8041C75.5121 58.8021 75.7874 57.6397 75.7879 56.3273C75.7879 56.3273 75.7879 34.4159 75.7843 23.457Z" fill="#5C8DBC"/>
<path d="M40.4026 39.7858L5.62988 59.807C6.2001 60.8378 7.06557 61.6994 8.23688 62.3774C13.849 65.6279 32.6844 76.4168 36.4452 78.6358C38.9743 80.128 41.4438 80.1816 43.9916 78.7105C53.4393 73.2554 62.8995 67.8232 72.3514 62.3741C73.5226 61.6963 74.3881 60.8342 74.9583 59.8043L40.4026 39.7858Z" fill="#1A4674"/>
<path d="M30.1032 45.7162C32.1266 49.2486 35.9304 51.6311 40.2938 51.6311C44.6842 51.6311 48.5097 49.2183 50.5229 45.6482L40.4025 39.7858L30.1032 45.7162Z" fill="#1A4674"/>
<path d="M75.7842 23.4572C75.7837 22.1157 75.4968 20.9303 74.9166 19.9128L40.4026 39.7859L74.9582 59.8044C75.5121 58.8024 75.7874 57.64 75.7879 56.3276C75.7879 56.3276 75.7879 34.4161 75.7842 23.4572Z" fill="#1B598E"/>
<path d="M73.8841 41.2166H71.1838V43.9175H68.483V41.2166H65.783V38.5167H68.483V35.8164H71.1838V38.5167H73.8841V41.2166ZM64.031 41.2166H61.331V43.9175H58.6306V41.2166H55.9304V38.5167H58.6306V35.8164H61.331V38.5167H64.031V41.2166Z" fill="white"/>
<path d="M50.523 45.6483C48.5098 49.2185 44.6844 51.6314 40.294 51.6314C35.9305 51.6314 32.1267 49.2488 30.1033 45.7164C29.0869 43.9438 28.553 41.9358 28.5551 39.8925C28.5551 33.4095 33.811 28.1539 40.294 28.1539C44.6294 28.1539 48.4131 30.5068 50.4466 34.0031L60.707 28.0948C56.6287 21.055 49.0148 16.3187 40.294 16.3187C27.2742 16.3187 16.7199 26.8733 16.7199 39.8925C16.7199 44.1638 17.8562 48.1692 19.8421 51.6241C23.91 58.7012 31.5457 63.4666 40.294 63.4666C49.0584 63.4666 56.7059 58.682 60.768 51.5841L50.523 45.6483Z" fill="white"/>
</svg>
