<svg width="80" height="80" viewBox="0 0 80 80" fill="none" xmlns="http://www.w3.org/2000/svg">
<g clip-path="url(#clip0_5_6997)">
<path d="M6.03737 33.8504C5.88156 33.8504 5.84261 33.7724 5.92051 33.6556L6.73848 32.604C6.81638 32.4871 7.01114 32.4092 7.16694 32.4092H21.0723C21.2282 32.4092 21.2671 32.526 21.1892 32.6429L20.527 33.6556C20.4491 33.7724 20.2544 33.8893 20.1375 33.8893L6.03737 33.8504ZM0.155803 37.4339C-1.19209e-08 37.4339 -0.0389507 37.356 0.0389507 37.2391L0.85692 36.1874C0.934816 36.0706 1.12957 35.9927 1.28538 35.9927H19.0469C19.2027 35.9927 19.2806 36.1095 19.2417 36.2264L18.9301 37.1612C18.8911 37.317 18.7353 37.3949 18.5795 37.3949L0.155803 37.4339ZM9.58192 41.0173C9.42608 41.0173 9.38712 40.9004 9.46504 40.7836L10.0103 39.8098C10.0882 39.693 10.2441 39.5761 10.3998 39.5761H18.19C18.3458 39.5761 18.4237 39.693 18.4237 39.8488L18.3458 40.7836C18.3458 40.9394 18.19 41.0563 18.0731 41.0563L9.58192 41.0173ZM50.0127 33.1492C47.5589 33.7724 45.884 34.2399 43.469 34.8631C42.8848 35.0189 42.8458 35.0579 42.3394 34.4736C41.7552 33.8114 41.3267 33.383 40.5088 32.9935C38.0549 31.786 35.6789 32.1365 33.4587 33.5777C30.8101 35.2916 29.4468 37.8233 29.4857 40.9784C29.5246 44.0944 31.667 46.6652 34.7441 47.0936C37.3927 47.4442 39.6129 46.5094 41.3657 44.5228C41.7162 44.0944 42.0278 43.627 42.4174 43.0817H34.8998C34.0819 43.0817 33.8871 42.5753 34.1598 41.9132C34.6662 40.7057 35.601 38.6803 36.1463 37.6676C36.2631 37.4339 36.5358 37.0444 37.1201 37.0444H51.2982C51.2202 38.096 51.2202 39.1476 51.0644 40.1993C50.636 43.0038 49.5843 45.5745 47.8705 47.8337C45.066 51.534 41.4046 53.8321 36.7695 54.4553C32.9523 54.9616 29.4078 54.2216 26.2918 51.8846C23.4094 49.7033 21.7734 46.821 21.345 43.2375C20.8386 38.9919 22.085 35.1747 24.6558 31.8249C27.4214 28.2025 31.0827 25.9044 35.562 25.0864C39.2234 24.4243 42.729 24.8528 45.884 26.9951C47.9484 28.3583 49.4285 30.228 50.4022 32.4871C50.636 32.8376 50.4802 33.0324 50.0127 33.1492Z" fill="#00ACD7"/>
<path d="M62.9055 54.689C59.361 54.6111 56.128 53.5984 53.4015 51.2614C51.1034 49.2749 49.6623 46.7431 49.1948 43.7439C48.4937 39.3425 49.7011 35.4474 52.3498 31.9808C55.1932 28.2415 58.6209 26.2939 63.256 25.476C67.229 24.7749 70.9683 25.1644 74.357 27.4625C77.4341 29.5658 79.3427 32.4092 79.849 36.1485C80.5112 41.4068 78.9921 45.6914 75.3697 49.3528C72.7989 51.9625 69.6439 53.5984 66.0215 54.3385C64.9699 54.5332 63.9182 54.5721 62.9055 54.689ZM72.1757 38.953C72.1367 38.4466 72.1367 38.057 72.0589 37.6676C71.3578 33.8114 67.8132 31.6302 64.1129 32.4871C60.4905 33.3051 58.1535 35.6032 57.2966 39.2646C56.5955 42.3027 58.0755 45.3798 60.88 46.6262C63.0223 47.561 65.1646 47.4442 67.229 46.3926C70.3061 44.7955 71.981 42.3027 72.1757 38.953Z" fill="#00ACD7"/>
</g>
<defs>
<clipPath id="clip0_5_6997">
<rect width="80" height="80" fill="white"/>
</clipPath>
</defs>
</svg>
