<svg width="80" height="80" viewBox="0 0 80 80" fill="none" xmlns="http://www.w3.org/2000/svg">
<g clip-path="url(#clip0_5_70)">
<path d="M39.7118 0.000244141C19.4028 0.000244141 20.6708 8.80745 20.6708 8.80745L20.6934 17.9319H40.0739V20.6714H12.9958C12.9958 20.6714 0 19.1975 0 39.6891C0 60.1814 11.343 59.4547 11.343 59.4547H18.1125V49.9455C18.1125 49.9455 17.7475 38.6024 29.2744 38.6024H48.4964C48.4964 38.6024 59.2959 38.7769 59.2959 28.1651V10.619C59.2959 10.619 60.9362 0.000244141 39.7118 0.000244141ZM29.0254 6.1363C29.4834 6.13589 29.9369 6.22579 30.3601 6.40085C30.7833 6.57593 31.1678 6.83273 31.4916 7.15657C31.8154 7.4804 32.0722 7.86492 32.2474 8.28809C32.4224 8.71129 32.5123 9.16489 32.5119 9.62281C32.5123 10.0808 32.4224 10.5343 32.2474 10.9575C32.0722 11.3807 31.8154 11.7653 31.4916 12.0891C31.1678 12.413 30.7833 12.6698 30.3601 12.8448C29.9369 13.0199 29.4834 13.1098 29.0254 13.1094C28.5674 13.1098 28.1138 13.0199 27.6906 12.8448C27.2674 12.6698 26.883 12.413 26.5591 12.0891C26.2353 11.7653 25.9785 11.3807 25.8034 10.9575C25.6283 10.5343 25.5384 10.0808 25.5388 9.62281C25.5384 9.16489 25.6283 8.71129 25.8034 8.28809C25.9785 7.86492 26.2353 7.4804 26.5591 7.15657C26.883 6.83273 27.2674 6.57593 27.6906 6.40085C28.1138 6.22579 28.5674 6.13589 29.0254 6.1363Z" fill="url(#paint0_linear_5_70)"/>
<path d="M40.2886 79.5845C60.5976 79.5845 59.3295 70.7772 59.3295 70.7772L59.307 61.653H39.9261V58.9136H67.0042C67.0042 58.9136 80 60.3874 80 39.8952C80 19.4032 68.657 20.1299 68.657 20.1299H61.8875V29.6389C61.8875 29.6389 62.2525 40.9818 50.7256 40.9818H31.5036C31.5036 40.9818 20.7041 40.8073 20.7041 51.4196V68.966C20.7041 68.966 19.0645 79.5845 40.2886 79.5845ZM50.975 73.4489C50.517 73.4494 50.0634 73.3595 49.6402 73.1845C49.217 73.0093 48.8326 72.7525 48.5087 72.4287C48.1849 72.1049 47.9281 71.7204 47.753 71.2972C47.5779 70.874 47.488 70.4204 47.4884 69.9625C47.488 69.5045 47.5778 69.0509 47.7529 68.6276C47.9279 68.2044 48.1847 67.8198 48.5086 67.496C48.8324 67.1721 49.217 66.9153 49.6402 66.7401C50.0634 66.5651 50.517 66.4752 50.975 66.4756C51.433 66.4752 51.8865 66.5651 52.3097 66.7401C52.7329 66.9152 53.1174 67.172 53.4412 67.4958C53.765 67.8197 54.0218 68.2042 54.197 68.6274C54.372 69.0506 54.4619 69.5041 54.4615 69.9621C54.4619 70.4201 54.372 70.8737 54.197 71.2969C54.0218 71.7201 53.765 72.1045 53.4412 72.4284C53.1174 72.7522 52.7329 73.009 52.3097 73.1841C51.8865 73.3592 51.433 73.4493 50.975 73.4489Z" fill="url(#paint1_linear_5_70)"/>
</g>
<defs>
<linearGradient id="paint0_linear_5_70" x1="7.68797" y1="7.15834" x2="47.3335" y2="46.4084" gradientUnits="userSpaceOnUse">
<stop stop-color="#387EB8"/>
<stop offset="1" stop-color="#366994"/>
</linearGradient>
<linearGradient id="paint1_linear_5_70" x1="32.0225" y1="32.3625" x2="74.5973" y2="72.6098" gradientUnits="userSpaceOnUse">
<stop stop-color="#FFE052"/>
<stop offset="1" stop-color="#FFC331"/>
</linearGradient>
<clipPath id="clip0_5_70">
<rect width="80" height="80" fill="white"/>
</clipPath>
</defs>
</svg>
