<svg width="80" height="80" viewBox="0 0 80 80" fill="none" xmlns="http://www.w3.org/2000/svg">
<g clip-path="url(#clip0_5_91)">
<path d="M0 0.000366211H80V80H0V0.000366211Z" fill="#017ACB"/>
<path d="M38.4126 29.6254H42.2501V36.2504H31.875V65.7254L31.6 65.8004C31.225 65.9004 26.2875 65.9004 25.225 65.7879L24.375 65.7129V36.2504H14V29.6254L17.2875 29.5879C19.0875 29.5629 23.7125 29.5629 27.5626 29.5879C31.4126 29.6129 36.2875 29.6254 38.4126 29.6254ZM67.7001 62.6004C66.1751 64.2129 64.5376 65.1129 61.8126 65.8504C60.6251 66.1754 60.425 66.1879 57.7501 66.1754C55.075 66.1629 54.8626 66.1629 53.5626 65.8254C50.2001 64.9629 47.4875 63.2754 45.6375 60.8879C45.1126 60.2129 44.2501 58.8129 44.2501 58.6379C44.2501 58.5879 44.375 58.4754 44.5375 58.4004C44.7001 58.3254 45.0375 58.1129 45.3126 57.9504C45.5875 57.7879 46.0875 57.4879 46.425 57.3129C46.7626 57.1379 47.7375 56.5629 48.5876 56.0504C49.4376 55.5379 50.2126 55.1254 50.3001 55.1254C50.3876 55.1254 50.5501 55.3004 50.675 55.5129C51.425 56.7754 53.175 58.3879 54.4126 58.9379C55.175 59.2629 56.8626 59.6254 57.675 59.6254C58.425 59.6254 59.8001 59.3004 60.5376 58.9629C61.325 58.6004 61.7251 58.2379 62.2001 57.5129C62.5251 57.0004 62.5626 56.8629 62.5501 55.8879C62.5501 54.9879 62.5001 54.7379 62.2501 54.3254C61.5501 53.1754 60.6001 52.5754 56.7501 50.8754C52.775 49.1129 50.9876 48.0629 49.5375 46.6504C48.4626 45.6004 48.2501 45.3129 47.575 44.0004C46.7001 42.3129 46.5875 41.7629 46.575 39.2504C46.5626 37.4879 46.6001 36.9129 46.7875 36.3129C47.0501 35.4129 47.9001 33.6754 48.2875 33.2379C49.0875 32.3004 49.375 32.0129 49.9376 31.5504C51.6376 30.1504 54.2876 29.2254 56.825 29.1379C57.1126 29.1379 58.0626 29.1879 58.9501 29.2504C61.5001 29.4629 63.2376 30.0879 64.9126 31.4254C66.1751 32.4254 68.0876 34.7754 67.9001 35.0879C67.7751 35.2754 62.7876 38.6004 62.4626 38.7004C62.2626 38.7629 62.1251 38.6879 61.8501 38.3629C60.1501 36.3254 59.4626 35.8879 57.8126 35.7879C56.6376 35.7129 56.0126 35.8504 55.225 36.3754C54.4001 36.9254 54.0001 37.7629 54.0001 38.9254C54.0126 40.6254 54.6626 41.4254 57.0626 42.6129C58.6126 43.3754 59.9376 44.0004 60.0376 44.0004C60.1876 44.0004 63.4001 45.6004 64.2376 46.1004C68.1376 48.3879 69.7251 50.7379 70.1376 54.7879C70.4376 57.8379 69.5751 60.6254 67.7001 62.6004Z" fill="white"/>
</g>
<defs>
<clipPath id="clip0_5_91">
<rect width="80" height="80" fill="white"/>
</clipPath>
</defs>
</svg>
